<svg xmlns="http://www.w3.org/2000/svg" version="1.1" xmlns:xlink="http://www.w3.org/1999/xlink" viewBox="0 0 200 200"><rect width="200" height="200" fill="url('#gradient')"></rect><defs><linearGradient id="gradient" gradientTransform="rotate(9 0.5 0.5)"><stop offset="0%" stop-color="#000000"></stop><stop offset="100%" stop-color="#000000"></stop></linearGradient></defs><g><g fill="#33cc33" transform="matrix(2.325329771247287,0,0,2.325329771247287,29.797864758691674,117.20978355165674)" stroke="#ffffff" stroke-width="0.95"><path d="M0.95-10.57L4.03-10.57L4.14-9.33Q5.26-10.76 7.16-10.76L7.16-10.76Q9.16-10.76 9.86-9.17L9.86-9.17Q10.94-10.76 12.97-10.76L12.97-10.76Q16.18-10.76 16.27-6.88L16.27-6.88L16.27 0L12.97 0L12.97-6.67Q12.97-7.48 12.70-7.85Q12.42-8.22 11.70-8.22L11.70-8.22Q10.72-8.22 10.24-7.35L10.24-7.35L10.25-7.22L10.25 0L6.95 0L6.95-6.65Q6.95-7.48 6.69-7.85Q6.43-8.22 5.68-8.22L5.68-8.22Q4.74-8.22 4.24-7.35L4.24-7.35L4.24 0L0.95 0L0.95-10.57ZM17.74-4.82L17.73-5.38Q17.73-6.96 18.35-8.20Q18.96-9.43 20.12-10.10Q21.27-10.76 22.82-10.76L22.82-10.76Q25.20-10.76 26.56-9.29Q27.93-7.82 27.93-5.29L27.93-5.29L27.93-5.18Q27.93-2.71 26.56-1.25Q25.19 0.20 22.84 0.20L22.84 0.20Q20.59 0.20 19.22-1.16Q17.85-2.51 17.74-4.82L17.74-4.82ZM21.04-5.77L21.03-5.18Q21.03-3.71 21.48-3.03Q21.94-2.34 22.84-2.34L22.84-2.34Q24.60-2.34 24.64-5.05L24.64-5.05L24.64-5.38Q24.64-8.22 22.82-8.22L22.82-8.22Q21.17-8.22 21.04-5.77L21.04-5.77ZM35.83-10.64L35.77-7.59L34.69-7.67Q33.13-7.67 32.70-6.69L32.70-6.69L32.70 0L29.40 0L29.40-10.57L32.49-10.57L32.60-9.21Q33.43-10.76 34.91-10.76L34.91-10.76Q35.44-10.76 35.83-10.64L35.83-10.64ZM46.77-5.36L46.77-5.20Q46.77-2.60 45.69-1.20Q44.62 0.20 42.67 0.20L42.67 0.20Q41.05 0.20 40.07-1.08L40.07-1.08L39.93 0L36.98 0L36.98-15L40.27-15L40.27-9.72Q41.19-10.76 42.65-10.76L42.65-10.76Q44.62-10.76 45.69-9.35Q46.77-7.93 46.77-5.36L46.77-5.36ZM43.47-5.40L43.47-5.40Q43.47-6.92 43.06-7.57Q42.66-8.22 41.82-8.22L41.82-8.22Q40.70-8.22 40.27-7.37L40.27-7.37L40.27-3.17Q40.69-2.33 41.84-2.33L41.84-2.33Q43.00-2.33 43.31-3.47L43.31-3.47Q43.47-4.02 43.47-5.40ZM51.69-10.57L51.69 0L48.39 0L48.39-10.57L51.69-10.57ZM48.19-13.29L48.19-13.29Q48.19-13.99 48.70-14.44Q49.21-14.89 50.02-14.89Q50.83-14.89 51.34-14.44Q51.85-13.99 51.85-13.29Q51.85-12.59 51.34-12.14Q50.83-11.69 50.02-11.69Q49.21-11.69 48.70-12.14Q48.19-12.59 48.19-13.29ZM54.26-13.19L57.55-13.19L57.55-10.57L59.29-10.57L59.29-8.28L57.55-8.28L57.55-3.45Q57.55-2.85 57.76-2.62Q57.98-2.38 58.61-2.38L58.61-2.38Q59.10-2.38 59.43-2.44L59.43-2.44L59.43-0.09Q58.54 0.20 57.58 0.20L57.58 0.20Q55.88 0.20 55.07-0.61Q54.26-1.41 54.26-3.04L54.26-3.04L54.26-8.28L52.91-8.28L52.91-10.57L54.26-10.57L54.26-13.19Z"></path></g></g></svg>